{
	"asset":{
		"generator":"Khronos glTF Blender I/O v4.2.57",
		"version":"2.0"
	},
	"scene":0,
	"scenes":[
		{
			"name":"Scene",
			"nodes":[
				0
			]
		}
	],
	"nodes":[
		{
			"mesh":0,
			"name":"path1",
			"rotation":[
				0,
				0.7071068286895752,
				0.7071068286895752,
				5.3385093679025886e-08
			],
			"scale":[
				256.84619140625,
				256.84619140625,
				256.84619140625
			],
			"translation":[
				0,
				6.050424575805664,
				0
			]
		}
	],
	"meshes":[
		{
			"name":"path1",
			"primitives":[
				{
					"attributes":{
						"POSITION":0,
						"NORMAL":1,
						"TEXCOORD_0":2
					},
					"indices":3
				}
			]
		}
	],
	"accessors":[
		{
			"bufferView":0,
			"componentType":5126,
			"count":3800,
			"max":[
				0.04827055707573891,
				0.007999991066753864,
				0.0471174493432045
			],
			"min":[
				-0.043486788868904114,
				-0.007999991066753864,
				-0.08167605847120285
			],
			"type":"VEC3"
		},
		{
			"bufferView":1,
			"componentType":5126,
			"count":3800,
			"type":"VEC3"
		},
		{
			"bufferView":2,
			"componentType":5126,
			"count":3800,
			"type":"VEC2"
		},
		{
			"bufferView":3,
			"componentType":5123,
			"count":11376,
			"type":"SCALAR"
		}
	],
	"bufferViews":[
		{
			"buffer":0,
			"byteLength":45600,
			"byteOffset":0,
			"target":34962
		},
		{
			"buffer":0,
			"byteLength":45600,
			"byteOffset":45600,
			"target":34962
		},
		{
			"buffer":0,
			"byteLength":30400,
			"byteOffset":91200,
			"target":34962
		},
		{
			"buffer":0,
			"byteLength":22752,
			"byteOffset":121600,
			"target":34963
		}
	],
	"buffers":[
		{
			"byteLength":144352,
			"uri":"LightningBolt.bin"
		}
	]
}
